<svg id="Capa_1" enable-background="new 0 0 512 512" height="512" viewBox="0 0 512 512" width="512" xmlns="http://www.w3.org/2000/svg"><circle cx="256" cy="245" fill="#6bd9e7" r="245"/><g fill="#02c7dd"><path d="m167 104.5h7.904v16.172h-7.904z"/><path d="m185 89.5v-79.037c-6.104 1.845-12.108 3.915-18 6.213v72.824z"/><path d="m335.17 104.5h9.83v16.172h-9.83z"/><path d="m345 89.5v-72.824c-5.892-2.298-11.897-4.368-18-6.213v79.037z"/></g><path d="m500.989 246c.001-.334.011-.666.011-1 0-44.419-11.821-86.077-32.489-122h-425.022c-20.668 35.923-32.489 77.581-32.489 122 0 .334.01.666.011 1z" fill="#fed402"/><path d="m149.859 230.85v14.15h10v-14.15h15.045v14.15h10v-14.15h15.044v14.15h10v-14.15h15.044v14.15h10v-14.15h15.045v14.15h10v-14.15h15.044v14.15h10v-14.15h15.044v14.15h10v-14.15h15.045v14.15h10v-14.15h15.044v14.15h10v-14.15h16.815c.199 0 .39-.036.583-.059v-9.883c-.193-.022-.384-.059-.583-.059h-16.815v-15.044h16.815c.199 0 .39-.036.583-.059v-9.883c-.193-.023-.384-.059-.583-.059h-16.815v-15.044h16.815c.199 0 .39-.036.583-.059v-9.883c-.193-.022-.384-.059-.583-.059h-16.815v-15.044h16.815c.199 0 .39-.036.583-.059v-9.883c-.193-.022-.384-.059-.583-.059h-16.815v-15.044h16.815c.199 0 .39-.036.583-.059v-8.611c0-.431-.036-.852-.064-1.275-.173-.018-.341-.052-.519-.052h-16.815v-17.117c-.366-.021-.729-.056-1.102-.056h-8.898v17.172h-15.044v-17.172h-10v17.172h-15.045v-17.172h-10v17.172h-15.044v-17.172h-10v17.172h-15.044v-17.172h-10v17.172h-15.045v-17.172h-10v17.172h-15.044v-17.172h-10v17.172h-15.044v-17.172h-10v17.172h-15.045v-17.172h-6.972c-1.033 0-2.04.106-3.028.27v16.902h-14.889c-.178 0-.346.034-.519.052-.028.423-.064.845-.064 1.275v8.614c.193.022.384.059.583.059h14.889v15.044h-14.889c-.199 0-.39.036-.583.059v9.883c.193.023.384.059.583.059h14.889v15.044h-14.889c-.199 0-.39.036-.583.059v9.883c.193.023.384.059.583.059h14.889v15.044h-14.889c-.199 0-.39.036-.583.059v9.883c.193.022.384.059.583.059h14.889v15.044h-14.889c-.199 0-.39.036-.583.059v9.883c.193.023.384.059.583.059h14.889zm185.311-100.178h15.044v15.044h-15.044zm0 25.045h15.044v15.044h-15.044zm0 25.044h15.044v15.044h-15.044zm0 25.044h15.044v15.044h-15.044zm-25.045-75.133h15.045v15.044h-15.045zm0 25.045h15.045v15.044h-15.045zm0 25.044h15.045v15.044h-15.045zm0 25.044h15.045v15.044h-15.045zm-25.044-75.133h15.044v15.044h-15.044zm0 25.045h15.044v15.044h-15.044zm0 25.044h15.044v15.044h-15.044zm0 25.044h15.044v15.044h-15.044zm-25.044-75.133h15.044v15.044h-15.044zm0 25.045h15.044v15.044h-15.044zm0 25.044h15.044v15.044h-15.044zm0 25.044h15.044v15.044h-15.044zm-25.045-75.133h15.045v15.044h-15.045zm0 25.045h15.045v15.044h-15.045zm0 25.044h15.045v15.044h-15.045zm0 25.044h15.045v15.044h-15.045zm-25.044-75.133h15.044v15.044h-15.044zm0 25.045h15.044v15.044h-15.044zm0 25.044h15.044v15.044h-15.044zm0 25.044h15.044v15.044h-15.044zm-25.044-75.133h15.044v15.044h-15.044zm0 25.045h15.044v15.044h-15.044zm0 25.044h15.044v15.044h-15.044zm0 25.044h15.044v15.044h-15.044zm-25.045-75.133h15.045v15.044h-15.045zm0 25.045h15.045v15.044h-15.045zm0 25.044h15.045v15.044h-15.045zm0 25.044h15.045v15.044h-15.045z" fill="#fff"/><path d="m135.388 246v-124c0-9.649 7.851-17.5 17.5-17.5h206.225c9.649 0 17.5 7.851 17.5 17.5v124h15v-124c0-17.92-14.579-32.5-32.5-32.5h-206.225c-17.921 0-32.5 14.58-32.5 32.5v124z" fill="#fe0364"/><path d="m163.5 89.5h-10.612c-17.921 0-32.5 14.58-32.5 32.5v124h10.612v-124c0-17.92 14.579-32.5 32.5-32.5z" fill="#fe0364"/><path d="m11 245c0 135.31 109.69 245 245 245s245-109.69 245-245z" fill="#d4f2f6"/><path d="m395.699 393.032 10.26-21.202h-29.289l-10.383 21.202z" fill="#fff"/><path d="m381.77 393.032 10.382-21.202h-15.482l-10.383 21.202z" fill="#c7e7ff"/><path d="m395.102 334.194h-51.67c-4.768 0-8.666 3.51-8.666 7.799s3.898 7.799 8.666 7.799h44.031z" fill="#a7e8f1"/><path d="m439.264 303-7.547 15.598h10.295c4.766 0 8.664 3.509 8.664 7.798 0 4.29-3.898 7.798-8.664 7.798h-17.842l-7.548 15.598h60.884c7.032-14.839 12.612-30.497 16.568-46.793h-54.81z" fill="#a7e8f1"/><path d="m332.922 391.784c0 5.028-4.112 9.142-9.14 9.142h-67.642c-5.027 0-9.14-4.113-9.14-9.142v-19.743c0-5.027 4.112-9.142 9.14-9.142h67.643c5.027 0 9.14 4.114 9.14 9.142v19.743z" fill="#0078c8"/><path d="m277.601 391.784v-19.743c0-5.027 4.112-9.142 9.14-9.142h-30.601c-5.027 0-9.14 4.114-9.14 9.142v19.743c0 5.028 4.112 9.142 9.14 9.142h30.601c-5.028 0-9.14-4.113-9.14-9.142z" fill="#015a9a"/><path d="m218.334 362.899h-150.775c-4.768 0-8.666 3.509-8.666 7.798 0 4.29 3.898 7.8 8.666 7.8h21.453c4.766 0 8.664 3.509 8.664 7.798 0 4.29-3.898 7.799-8.664 7.799h-25.643c4.242 5.39 8.717 10.587 13.389 15.598h99.332c4.766 0 8.664-3.509 8.664-7.799 0-4.289-3.898-7.799-8.664-7.799h-19.498c-4.766 0-8.664-3.509-8.664-7.799 0-4.289 3.898-7.798 8.664-7.798h61.742c4.766 0 8.666-3.51 8.666-7.8 0-4.289-3.9-7.798-8.666-7.798z" fill="#a7e8f1"/><path d="m366.777 392.032-17.131 34.982h29.611l16.927-34.982z" fill="#98bce5"/><path d="m382.26 392.032h-15.483l-17.131 34.982h15.482z" fill="#7bacdf"/><path d="m420.863 341.027 37.272-77.027h-28.657l-37.722 77.027z" fill="#98bce5"/><path d="m429.478 264-37.722 77.027h15.482l37.723-77.027z" fill="#7bacdf"/><path d="m382.352 360.229-6.171 12.601h29.294l6.097-12.601z" fill="#98bce5"/><path d="m391.663 372.83 6.171-12.601h-15.482l-6.171 12.601z" fill="#7bacdf"/><path d="m209.819 447.449-19.015-1.957c-9.666-.995-19.186 5.976-21.154 15.493l-6.977 33.713c-1.969 9.517 4.371 17.302 14.089 17.302h22.823z" fill="#015a9a"/><path d="m350.117 426.014-8.936 18.285c-4.267 8.731-15.667 15.06-25.333 14.065l-6.373-.656-8.532 54.292h19.523c9.717 0 21.132-7.157 25.363-15.904l33.911-70.082z" fill="#015a9a"/><path d="m198.607 512h103.325l8.497-54.195-101.685-10.467z" fill="#0078c8"/><path d="m428.988 265h28.662l36.866-76.19c-2.825-12.038-6.541-23.73-11.069-35.012z" fill="#015a9a"/><path d="m444.471 265 45.486-92.88c-1.935-6.215-4.104-12.328-6.51-18.321l-54.459 111.201z" fill="#015a9a"/><path d="m87.369 234.362 14.799 30.22h-25.58l-14.623-30.22z" fill="#7bacdf"/><path d="m40.645 190.299h25.145l-27.907-56.986c-4.451 8.674-8.395 17.65-11.803 26.886z" fill="#98bce5"/><path d="m54.988 190.299-22.297-46.163c-2.379 5.263-4.6 10.611-6.611 16.063l14.564 30.1z" fill="#7bacdf"/><path d="m222.963 282.236 16.426-1.691c8.351-.86 16.574 5.163 18.274 13.384l6.027 29.125c1.701 8.221-3.776 14.947-12.171 14.947h-19.717z" fill="#015a9a"/><path d="m101.761 263.718 7.721 15.796c3.686 7.542 13.534 13.01 21.884 12.15l5.506-.567 7.37 46.903h-16.865c-8.396 0-18.256-6.183-21.911-13.74l-29.296-60.543h25.591z" fill="#015a9a"/><path d="m121.067 327.104-30.616-63.386h-14.281l29.295 60.543c3.655 7.557 13.516 13.74 21.911 13.74h4.982c-4.864-2.518-9.147-6.465-11.291-10.897z" fill="#015a9a"/><path d="m87.369 234.362 14.799 30.22h-25.58l-14.623-30.22z" fill="#98bce5"/><path d="m61.965 234.362 14.623 30.22h14.28l-14.597-30.22z" fill="#7bacdf"/><path d="m73.914 206.888 5.332 10.885h-25.307l-5.268-10.885z" fill="#98bce5"/><path d="m63.002 206.888h-14.33l2.092 4.323 3.175 6.562h14.321z" fill="#7bacdf"/><path d="m232.648 338h-89.26l-7.341-46.818 87.844-9.042z" fill="#0078c8"/><path d="m62.383 235.226-8.862-18.316h25.302l8.97 18.316z" fill="#fff"/><path d="m76.689 235.226-8.847-18.316h-14.321l5.149 10.641 3.713 7.675z" fill="#fff"/><path d="m49.09 207.752-8.863-18.317h25.139l8.971 18.317z" fill="#fff"/><path d="m54.571 189.435h-14.344l8.863 18.317h14.329z" fill="#c7e7ff"/><path d="m76.689 235.226-8.847-18.316h-14.321l5.149 10.641 3.713 7.675z" fill="#c7e7ff"/><path d="m411.088 361.229 10.26-21.202h-29.102l-10.384 21.202z" fill="#fff"/><path d="m392.246 340.027-10.384 21.202h15.482l10.384-21.202z" fill="#c7e7ff"/></svg>